# xmcd
#
# Track frame offsets:
#	150
#	17150
#	25615
#	39435
#	44195
#	57247
#	67982
#	81130
#	90682
#	106787
#	125737
#	143230
#	155120
#	170162
#	181282
#	191465
#	201472
#	213390
#	224587
#	237160
#	249715
#	262700
#	273955
#	286697
#
# Disc length: 3978
#
# Revision: 1
# Processed by: cddbd v1.5.1PL0 Copyright (c) Steve Scherf et al.
# Submitted via: ExactAudioCopy v0.90b3
# Normalized: r0:DSETVAR1
#
DISCID=640f8818
DTITLE=Various Artist - 24 number one USA country songs
DYEAR=1900
DGENRE=
TTITLE0=Glen Campbell - Southern Nights
TTITLE1=Glen Campbell - Wichita Lineman
TTITLE2=Glen Campbell - Rhinestone Cowboy
TTITLE3=Glen Campbell - Galveston
TTITLE4=Johnny Cash - Folsom Prison Blues
TTITLE5=Red Sovine - Why Baby Why
TTITLE6=Roy Clark - Come Live Witm Me
TTITLE7=Roy Clark - Kiss An Angel Good Mornin'
TTITLE8=Roy Clark - Why me?
TTITLE9=Roy Clark - Sunday Mornin' Comin' Down
TTITLE10=Roy Clark - For The Good Times
TTITLE11=Roy Clark - The Most Beautiful Girl
TTITLE12=Cash McCall - A Boy Named Sue
TTITLE13=Bobby Bare - Hello Darlin'
TTITLE14=Bobby Bare - Help Me Make It Through The Night
TTITLE15=George Jones - Heartbreak Hotel
TTITLE16=Frankie Laine - Georgia On My Mind
TTITLE17=Buck Owens - Above And Beyond
TTITLE18=Tommy Overstreet - Behind Closed Doors
TTITLE19=Gene Pitney - I Can't Stop Loving You
TTITLE20=Bill Anderson - Sometimes
TTITLE21=Joe Stampley - Soul Song
TTITLE22=Cowboy Copas - Tennessee Flat Top Box
TTITLE23=Hank Thompson - There's A Honky Tonk Angel
EXTD=
EXTT0=
EXTT1=
EXTT2=
EXTT3=
EXTT4=
EXTT5=
EXTT6=
EXTT7=
EXTT8=
EXTT9=
EXTT10=
EXTT11=
EXTT12=
EXTT13=
EXTT14=
EXTT15=
EXTT16=
EXTT17=
EXTT18=
EXTT19=
EXTT20=
EXTT21=
EXTT22=
EXTT23=
PLAYORDER=
